<svg width="75" height="75" viewBox="0 0 75 75" fill="none" xmlns="http://www.w3.org/2000/svg">
<circle cx="37.5" cy="37.5" r="37.5" fill="url(#paint0_linear_39_289)"/>
<path d="M56.9652 34.0956C55.6288 32.3201 53.2145 31.9736 51.5331 31.8871C49.5069 31.7571 47.653 31.8438 45.4974 32.017C45.4112 31.7572 45.3249 31.1942 45.4112 30.025C45.7129 26.5606 46.101 24.0056 46.4029 21.9703L46.4459 21.797C46.7909 19.5885 45.5837 17.7263 43.5142 17.1634C41.5742 16.6438 39.0305 17.3366 38.0821 19.6317C37.9527 19.9348 37.8234 20.3245 37.6509 20.8008C36.4437 24.0055 33.7277 31.324 29.3303 33.9656V33.5758C29.3303 33.0128 28.8991 32.5797 28.3386 32.5797H17.9917C17.4311 32.5797 17 33.0128 17 33.5758V55.2284C17 55.7915 17.4311 56.2245 17.9917 56.2245H28.3386C28.8991 56.2245 29.3303 55.7915 29.3303 55.2284V55.0119C32.7793 55.9645 41.0568 58 46.9632 58C50.0672 58 53.9474 58 55.0252 53.1065C55.8875 49.2524 57.0083 43.5361 57.7414 39.5953C58.2586 37.2135 58 35.3947 56.9653 34.0955L56.9652 34.0956ZM55.2407 39.1623C54.5079 43.1031 53.3868 48.7327 52.5246 52.5869C51.9641 55.0987 50.8432 55.445 46.9631 55.445C41.2723 55.445 33.0809 53.3663 29.8475 52.5002C29.5458 52.4136 29.3733 52.1971 29.3302 51.8939V37.3C29.3302 37.0402 29.4596 36.7804 29.6752 36.6937C35.4522 34.0089 38.5563 25.6942 40.0222 21.7101C40.1946 21.2771 40.3239 20.8873 40.4533 20.6275C40.755 19.9346 41.488 19.5881 42.2208 19.5881C42.4364 19.5881 42.652 19.6314 42.8245 19.6747C43.4281 19.8479 44.0747 20.281 43.9023 21.4502L43.8592 21.6234C43.5575 23.7021 43.1263 26.2571 42.8244 29.8514C42.652 31.8867 42.9538 33.2725 43.6867 34.0087C44.1178 34.4417 44.7214 34.6583 45.3681 34.615C47.5668 34.3985 49.3344 34.3119 51.2745 34.4417C53.1284 34.5717 54.2924 34.9613 54.8529 35.6544C55.4564 36.3474 55.5857 37.5166 55.2408 39.1622L55.2407 39.1623Z" fill="black"/>
<defs>
<linearGradient id="paint0_linear_39_289" x1="37.5" y1="0" x2="37.5" y2="75" gradientUnits="userSpaceOnUse">
<stop stop-color="#F9F1F1"/>
<stop offset="1" stop-color="#F8D8D2"/>
</linearGradient>
</defs>
</svg>
