<svg width="75" height="75" viewBox="0 0 75 75" fill="none" xmlns="http://www.w3.org/2000/svg">
<circle cx="37.5" cy="37.5" r="37.5" fill="url(#paint0_linear_39_291)"/>
<path d="M49.5048 18H25.5013C23.3801 18.0023 21.3464 18.846 19.8461 20.3461C18.3461 21.8462 17.5024 23.8799 17.5 26.0013V50.0048C17.5023 52.126 18.346 54.1598 19.8461 55.66C21.3462 57.1601 23.3799 58.0038 25.5013 58.0061H49.5048C51.6262 58.0039 53.6598 57.1602 55.16 55.6602C56.6602 54.1601 57.5038 52.1264 57.506 50.0049V26.0015C57.5038 23.8801 56.6601 21.8465 55.16 20.3463C53.6599 18.8461 51.6262 18.0025 49.5048 18.0003V18ZM53.5054 50.0046C53.5041 51.0652 53.0823 52.0821 52.3322 52.832C51.5823 53.5821 50.5654 54.0039 49.5048 54.0052H25.5013C24.4407 54.0041 23.4237 53.5823 22.6737 52.8322C21.9236 52.0822 21.5019 51.0652 21.5008 50.0046V26.0011C21.5019 24.9405 21.9236 23.9235 22.6737 23.1735C23.4237 22.4234 24.4407 22.0017 25.5013 22.0006H49.5048C50.5654 22.0018 51.5823 22.4236 52.3322 23.1737C53.0823 23.9236 53.5041 24.9405 53.5054 26.0011V50.0046Z" fill="black"/>
<path d="M37.5051 29.0782C35.1383 29.0785 32.8688 30.019 31.1954 31.6927C29.5218 33.3663 28.5819 35.6362 28.582 38.0028C28.5823 40.3695 29.5226 42.6394 31.1963 44.3129C32.8698 45.9864 35.1397 46.9264 37.5064 46.9264C39.8732 46.9262 42.1427 45.9861 43.8165 44.3124C45.4901 42.6389 46.4302 40.369 46.4302 38.0023C46.4275 35.6361 45.4863 33.3676 43.8131 31.6946C42.1399 30.0215 39.8713 29.0806 37.505 29.0781L37.5051 29.0782ZM37.5051 42.9258C36.1992 42.9255 34.9472 42.4066 34.0241 41.4831C33.1008 40.5597 32.5823 39.3073 32.5825 38.0017C32.5828 36.6959 33.1016 35.4437 34.0251 34.5205C34.9483 33.5973 36.2007 33.0788 37.5065 33.0788C38.8121 33.0789 40.0644 33.5976 40.9876 34.521C41.9109 35.4443 42.4295 36.6965 42.4295 38.0023C42.4283 39.3078 41.9088 40.5596 40.9856 41.4827C40.0623 42.4056 38.8106 42.9247 37.5051 42.9258Z" fill="black"/>
<defs>
<linearGradient id="paint0_linear_39_291" x1="37.5" y1="0" x2="37.5" y2="75" gradientUnits="userSpaceOnUse">
<stop stop-color="#F9F1F1"/>
<stop offset="1" stop-color="#F8D8D2"/>
</linearGradient>
</defs>
</svg>
