<svg xmlns="http://www.w3.org/2000/svg" width="24" height="24" viewBox="0 0 24 24" fill="none">
  <path fill="#FFFFFF" d="M7.75 0H16.25C20.53 0 24 3.47 24 7.75V16.25C24 20.53 20.53 24 16.25 24H7.75C3.47 24 0 20.53 0 16.25V7.75C0 3.47 3.47 0 7.75 0ZM7.5 2.4C4.68 2.4 2.4 4.68 2.4 7.5V16.5C2.4 19.32 4.68 21.6 7.5 21.6H16.5C19.32 21.6 21.6 19.32 21.6 16.5V7.5C21.6 4.68 19.32 2.4 16.5 2.4H7.5ZM17.51 4.2C18.45 4.2 19.2 4.95 19.2 5.89C19.2 6.83 18.45 7.58 17.51 7.58C16.57 7.58 15.82 6.83 15.82 5.89C15.82 4.95 16.57 4.2 17.51 4.2ZM12 6C15.31 6 18 8.69 18 12C18 15.31 15.31 18 12 18C8.69 18 6 15.31 6 12C6 8.69 8.69 6 12 6ZM12 8.4C10.01 8.4 8.4 10.01 8.4 12C8.4 13.99 10.01 15.6 12 15.6C13.99 15.6 15.6 13.99 15.6 12C15.6 10.01 13.99 8.4 12 8.4Z"/>
</svg>
