<svg width="240" height="259" viewBox="0 0 240 259" fill="none" xmlns="http://www.w3.org/2000/svg">
<path fill-rule="evenodd" clip-rule="evenodd" d="M41.5625 2.76605C54.3385 9.14405 62.5425 21.718 62.7285 35.207C62.8235 42.076 62.8835 42.258 63.7985 38.479C65.1615 32.847 63.9185 23.468 60.9875 17.272C57.6655 10.25 50.8675 3.58904 44.9735 1.58104C37.4175 -0.993958 35.4205 -0.299953 41.5625 2.76605ZM108.841 16.733C106.249 29.283 98.4675 41.632 82.7145 58.2C71.3285 70.175 62.9386 80.137 57.8596 87.712C43.5936 108.986 36.9295 131.018 39.5835 148.128C40.2035 152.125 40.8435 155.527 41.0055 155.689C41.1675 155.851 41.3105 150.695 41.3235 144.231C41.3525 129.598 43.5496 120.884 51.0946 105.479C57.9016 91.58 64.9435 82.092 81.5205 64.479C96.4795 48.585 104.47 37.419 107.64 27.979C109.657 21.971 111.486 10.979 110.469 10.979C110.227 10.979 109.494 13.568 108.841 16.733ZM160.633 36.729C160.644 38.913 164.83 43.853 167.44 44.763C169.996 45.654 170.509 45.547 170.904 44.036C171.597 41.387 169.83 38.961 166.059 37.385C162.299 35.814 160.627 35.612 160.633 36.729ZM73.1435 43.783C71.5335 46.366 66.1465 53.787 61.1725 60.273C38.8815 89.344 30.9145 103.693 27.1185 121.61C23.3765 139.27 27.4145 160.38 36.5625 170.982C38.2335 172.919 38.0585 172.245 35.7825 167.979C30.1255 157.377 29.1256 152.767 29.1646 137.479C29.1986 124.388 29.4076 122.88 32.3866 114.256C37.6016 99.16 42.1746 91.366 63.6486 60.979C70.1406 51.793 77.1005 40.118 76.4645 39.481C76.2475 39.265 74.7535 41.2 73.1435 43.783ZM184.323 42.618C183.023 43.918 183.624 50.069 185.365 53.279L187.102 56.479L187.484 53.479C187.825 50.798 187.961 50.692 188.763 52.479C189.403 53.904 189.534 53.215 189.22 50.082C188.793 45.817 185.755 41.186 184.323 42.618ZM119.129 44.846C114.883 46.782 108.629 51.616 108.629 52.962C108.629 53.404 110.541 53.316 112.879 52.765C115.217 52.214 121.485 51.724 126.809 51.675C136.236 51.588 136.461 51.532 135.434 49.532C131.972 42.793 126.857 41.323 119.129 44.846ZM200.076 51.479C198.067 56.739 198.617 63.561 201.438 68.392C203.917 72.636 205.033 72.265 205.681 66.979L206.232 62.479L207.086 66.462C207.792 69.757 208.073 70.103 208.714 68.462C210.929 62.791 209.132 53.609 204.853 48.729C202.595 46.153 201.973 46.511 200.076 51.479ZM174.629 59.015C173.349 59.872 173.475 60.31 175.49 61.999C177.993 64.099 186.629 64.858 186.629 62.979C186.629 62.429 186.152 61.979 185.57 61.979C184.988 61.979 184.79 61.528 185.13 60.977C186.496 58.767 177.506 57.087 174.629 59.015ZM112.129 64.686C99.9575 66.019 88.6476 71.925 78.0086 82.503C73.5416 86.944 69.0936 92.113 68.1226 93.991C66.5316 97.067 67.0395 96.779 73.2425 91.091C84.4855 80.781 96.1105 75.152 110.488 73.056C120.144 71.649 133.125 72.881 142.457 76.092L147.995 77.997L145.725 75.581C143.143 72.833 133.844 67.724 128.629 66.19C124.477 64.968 116.331 64.226 112.129 64.686ZM199.617 72.961C206.813 83.558 213.534 98.79 216.06 110.229C216.717 113.206 218.352 113.865 219.253 111.516C220.724 107.684 210.978 86.816 201.936 74.434C195.418 65.509 193.903 64.547 199.617 72.961ZM178.879 74.685C176.036 75.232 176.06 75.544 179.262 79.742C182.65 84.184 190.701 87.956 196.82 87.969C199.4 87.975 201.77 87.559 202.088 87.046C202.405 86.533 200.744 84.919 198.397 83.46C195 81.348 194.671 80.926 196.786 81.389C198.248 81.709 200.273 82.274 201.286 82.644C205.159 84.06 199.52 79.104 194.298 76.501C189.481 74.101 184.783 73.548 178.879 74.685ZM106.629 84.604C88.4485 88.127 72.7816 100.482 65.0346 117.403C62.0896 123.835 58.5865 137.193 58.7445 141.389C58.8135 143.234 59.0195 143.673 59.2545 142.479C59.4705 141.379 60.1425 138.004 60.7465 134.979C63.1845 122.767 72.8856 106.944 82.3166 99.793C101.063 85.581 125.105 84.357 143.48 96.678C148.293 99.906 149.498 100.405 148.393 98.716C146.03 95.102 137.56 89.127 131.629 86.892C126.197 84.844 112.063 83.551 106.629 84.604ZM16.6975 98.111C4.39855 129.236 4.90055 161.888 18.1625 193.393C18.7405 194.765 18.6305 195.098 17.7735 194.569C15.6515 193.257 9.84855 180.569 7.17655 171.401C3.87455 160.068 1.36455 139.583 2.22455 130.979C2.58255 127.404 2.60655 124.73 2.27755 125.036C1.94955 125.343 1.17755 130.068 0.561548 135.536C-2.07745 159.007 4.70155 186.298 18.4426 207.513C34.4166 232.179 57.9715 249.015 86.6285 256.251C99.2405 259.436 125.409 259.348 137.986 256.079C154.704 251.734 166.941 245.751 180.172 235.454C196.309 222.894 207.244 208.523 215.594 188.901C219.375 180.017 219.474 177.979 216.129 177.979C214.085 177.979 213.617 177.478 213.561 175.229L213.494 172.479L212.405 174.979C204.787 192.473 197.919 202.903 186.722 213.979C172.826 227.725 158.511 236.061 140.037 241.165C128.625 244.318 102.709 244.341 91.3865 241.207C72.0305 235.851 59.1456 228.427 44.9976 214.479C26.8986 196.635 16.4655 176.216 12.7115 151.287C10.2745 135.104 12.1796 114.833 17.6236 99.016C19.2256 94.362 20.3995 90.416 20.2315 90.248C20.0635 90.08 18.4725 93.618 16.6975 98.111ZM111.076 115.841C97.9536 122.219 87.0776 131.535 81.1486 141.479C79.5676 144.131 79.6926 144.073 82.2286 140.979C92.1286 128.896 104.389 119.318 116.129 114.492C119.429 113.136 121.43 112.016 120.576 112.003C119.722 111.99 115.447 113.717 111.076 115.841ZM154.792 115.979C151.534 126.943 142.863 137.909 129.129 148.433C122.342 153.634 119.64 156.971 119.634 160.158C119.628 163.308 121.967 165.979 124.732 165.979C127.157 165.979 128.422 163.095 126.525 161.893C125.385 161.171 125.427 161.007 126.757 160.994C127.652 160.986 128.942 161.652 129.625 162.474C130.625 163.679 130.547 164.455 129.224 166.474C125.296 172.469 115.629 167.137 115.629 158.976V154.82L112.379 155.503C107.881 156.447 97.5675 160.595 92.0505 163.679C83.8845 168.243 75.9886 176.472 71.9656 184.611C68.5346 191.553 68.2786 192.725 67.9916 202.756L67.6845 213.479L69.1385 207.167C73.6435 187.618 84.2645 181.908 101.629 189.701C115.061 195.729 117.566 195.741 121.077 189.797C122.548 187.308 123.365 186.86 125.786 187.215C128.557 187.622 128.68 187.49 128.081 184.76C127.493 182.084 127.645 181.897 130.177 182.177C132.591 182.444 133.042 182.016 134.072 178.479C135.187 174.653 135.399 174.492 138.947 174.774C143.78 175.158 144.137 174.039 142.282 164.315C140.921 157.182 140.931 156.367 142.399 155.229C143.286 154.542 144.938 153.961 146.07 153.939C147.874 153.904 147.794 153.717 145.432 152.435L142.735 150.971L146.637 144.203C151.432 135.887 156.829 119.783 156.426 114.997L156.129 111.479L154.792 115.979ZM225.298 113.4C224.998 114.181 222.051 116.655 218.749 118.897C211.826 123.599 209.629 126.314 209.629 130.168C209.629 136.535 222.817 144.151 230.896 142.449C235.27 141.528 239.629 137.281 239.629 133.941C239.629 132.475 238.274 129.522 236.618 127.378C231.582 120.857 227.629 114.66 227.629 113.283C227.629 111.536 225.981 111.618 225.298 113.4ZM185.854 128.983C180.931 131.985 179.078 138.285 182.2 141.408C184.255 143.463 186.013 143.422 185.213 141.338C184.867 140.436 185.279 138.636 186.129 137.338C188.293 134.036 193.819 134.146 198.789 137.59C205.094 141.959 213.351 153.862 216.496 163.113L218.292 168.396L221.015 162.437C222.513 159.16 225.769 153.891 228.25 150.729L232.762 144.979L228.445 144.969C222.932 144.957 215.995 141.707 207.129 134.983C196.099 126.617 191.747 125.39 185.854 128.983ZM194.854 171.65C194.153 171.932 191.848 174.711 189.733 177.826C184.054 186.188 180.341 189.36 173.378 191.797C166.14 194.33 157.629 195.691 157.629 194.315C157.629 192.886 159.85 190.979 161.513 190.979C165.888 190.979 173.629 184.991 173.629 181.607C173.629 181.455 169.242 182.814 163.879 184.628C153.412 188.168 152.043 189.267 147.872 197.469C145.894 201.359 137.595 220.401 132.879 231.871C132.224 233.463 135.964 233.008 145.89 230.288L151.652 228.709L153.268 223.094C155.25 216.212 158.783 209.035 161.271 206.838C162.293 205.936 167.475 203.08 172.787 200.492C183.093 195.471 189.619 190.269 198.975 179.612C205.13 172.601 204.605 170.427 198.13 176.112C193.775 179.936 192.668 179.274 195.471 174.522C197.519 171.051 197.426 170.615 194.854 171.65ZM76.1545 202.929C75.1595 204.853 74.6285 208.665 74.6285 213.881V221.883L78.8785 224.794C83.2285 227.774 91.0285 231.979 92.2055 231.979C92.5655 231.979 91.1905 230.129 89.1475 227.869C83.9445 222.109 82.5156 218.277 80.1486 203.729C79.4136 199.214 78.2015 198.971 76.1545 202.929Z" fill="white"/>
</svg>
