<svg width="75" height="75" viewBox="0 0 75 75" fill="none" xmlns="http://www.w3.org/2000/svg">
<circle cx="37.5" cy="37.5" r="37.5" fill="url(#paint0_linear_39_290)"/>
<path d="M47.2231 28.9822L47.255 28.9714C47.2633 28.9686 47.2718 28.9658 47.2804 28.9628C47.5063 28.8863 47.823 28.779 48.1487 28.8889C49.7549 29.4309 51.3626 29.6029 53.1186 29.4731L53.1176 23.0789C50.7478 23.5272 48.3512 22.4982 46.9691 20.605L46.9653 20.5998L46.9654 20.5998C46.4142 19.8026 46.0071 18.9252 45.8181 17.9008H39.5125V46.3789V46.3824C39.5125 46.4234 39.5125 46.5023 39.499 46.5846C39.4891 46.6442 39.4687 46.7299 39.418 46.81C39.0467 49.0455 37.0835 50.7565 34.7781 50.7565C32.1913 50.7565 30.044 48.5781 30.044 45.9664C30.044 43.9299 31.4232 42.1523 33.3053 41.4928V33.9431C27.2965 34.6346 22.7985 39.746 22.7985 45.9664C22.7985 52.6833 28.1524 58.0992 34.7785 58.0992C41.0036 58.0992 46.2783 53.0865 46.6778 46.7761L46.6837 46.6828L46.7494 46.6162C46.7523 46.6133 46.7539 46.6113 46.7548 46.6102L46.7557 46.609C46.7556 46.6091 46.7557 46.6091 46.7557 46.6089M47.2231 28.9822L46.7557 46.6089M47.2231 28.9822L47.1951 29.0011C46.8621 29.2259 46.7588 29.5647 46.7588 29.8687V46.5442C46.7588 46.5662 46.7587 46.5791 46.758 46.5908C46.7574 46.6014 46.7564 46.6063 46.7559 46.6081C46.7558 46.6085 46.7558 46.6087 46.7557 46.6089M47.2231 28.9822L46.7557 46.6089M48.9717 46.8745V31.2532C50.6966 31.6208 52.5037 31.754 54.3893 31.4359L54.3893 31.436L54.3973 31.4344C54.9322 31.3261 55.25 30.8844 55.25 30.3638V21.6133C55.25 21.2571 55.0214 20.9409 54.7322 20.7457L54.6296 20.6765L54.6204 20.6796C54.3328 20.5297 54.0437 20.544 53.7779 20.6337L53.7668 20.6374L53.7561 20.6422C51.8293 21.5006 49.8337 20.8792 48.6775 19.3184L48.6776 19.3184L48.6749 19.3149C48.1383 18.6164 47.8298 17.6795 47.8298 16.8255C47.8298 16.6729 47.8044 16.5346 47.7475 16.4051C47.6911 16.2767 47.6093 16.1694 47.513 16.072C47.4169 15.9746 47.3107 15.8914 47.183 15.8339C47.0541 15.7759 46.9163 15.75 46.7644 15.75H38.448C38.1456 15.75 37.8747 15.8532 37.679 16.0513C37.4836 16.2492 37.3827 16.522 37.3827 16.8255V46.1313V46.2824C37.2274 47.6424 36.1886 48.6055 34.8605 48.6055C33.4524 48.6055 32.2568 47.3995 32.2568 45.9662C32.2568 44.6103 33.2183 43.559 34.5623 43.4078L34.5732 43.4066L34.584 43.4044C35.0835 43.3033 35.5182 42.8891 35.5182 42.3339V32.7578C35.5182 32.4543 35.4172 32.1815 35.2218 31.9837C35.0262 31.7855 34.7552 31.6823 34.4528 31.6823H34.2898V31.6821L34.2788 31.6826C26.6417 32.0188 20.75 38.24 20.75 45.9662C20.75 53.8612 27.0556 60.25 34.8607 60.25C42.1438 60.25 48.2685 54.5718 48.8836 47.2953C48.9297 47.2182 48.9488 47.1372 48.9582 47.0802C48.9717 46.9979 48.9717 46.9189 48.9717 46.878V46.8745Z" fill="black" stroke="black" stroke-width="0.5"/>
<defs>
<linearGradient id="paint0_linear_39_290" x1="37.5" y1="0" x2="37.5" y2="75" gradientUnits="userSpaceOnUse">
<stop stop-color="#F9F1F1"/>
<stop offset="1" stop-color="#F8D8D2"/>
</linearGradient>
</defs>
</svg>
